<svg width="240" height="68" viewBox="0 0 240 68" fill="none" xmlns="http://www.w3.org/2000/svg">
<path d="M103.622 18.7088V12.9178C103.622 10.2085 103.165 7.88782 102.252 5.95592C101.411 4.09979 100.012 2.55239 98.2513 1.52903C96.4941 0.511249 94.3759 0.00157427 91.8969 3.61903e-06C89.4179 -0.00156703 87.3084 0.508107 85.5683 1.52903C83.8135 2.5599 82.4169 4.1051 81.5674 5.95592C80.6401 7.88782 80.1773 10.2202 80.1788 12.9532V38.6145C80.1788 41.3239 80.6417 43.6445 81.5674 45.5764C82.4196 47.4322 83.8245 48.9786 85.5895 50.0033C87.3484 51.0211 89.4524 51.5308 91.9016 51.5323C94.3806 51.5323 96.4988 51.0227 98.256 50.0033C100.017 48.9806 101.416 47.433 102.257 45.5764C103.17 43.6445 103.627 41.3239 103.627 38.6145V32.7811L97.8018 38.6145C97.8357 39.968 97.5955 41.3144 97.0958 42.5726C96.6968 43.5833 96.0019 44.4497 95.1023 45.0581C94.127 45.6139 93.0239 45.9062 91.9016 45.9062C90.7793 45.9062 89.6762 45.6139 88.7008 45.0581C87.7901 44.4505 87.0883 43.5769 86.691 42.5561C86.1993 41.3017 85.9633 39.9616 85.9967 38.6145V12.9532C85.9615 11.5945 86.1976 10.2425 86.691 8.97629C87.0878 7.95638 87.7898 7.08415 88.7008 6.47895C89.6723 5.92025 90.773 5.62624 91.8934 5.62624C93.0137 5.62624 94.1145 5.92025 95.0859 6.47895C95.9969 7.08415 96.6989 7.95638 97.0958 8.97629C97.5928 10.2155 97.833 11.5428 97.8018 12.8778L103.622 18.7088Z" fill="black"/>
<path d="M125.884 19.0834C125.102 17.5674 123.868 16.3323 122.353 15.5494C120.814 14.739 118.958 14.3337 116.785 14.3337C114.612 14.3337 112.745 14.739 111.184 15.5494C109.657 16.3247 108.412 17.561 107.625 19.0834C106.817 20.6226 106.413 22.4799 106.413 24.6553V41.0458C106.413 43.2447 106.817 45.1295 107.625 46.7002C108.404 48.2427 109.65 49.5 111.184 50.2931C112.743 51.1129 114.61 51.5237 116.785 51.5252C118.96 51.5268 120.816 51.1239 122.353 50.3166C123.873 49.5287 125.108 48.2837 125.884 46.7567C126.693 45.1939 127.098 43.3249 127.098 41.1495V24.6576C127.095 22.4823 126.69 20.6242 125.884 19.0834ZM121.304 41.0458C121.304 42.6165 120.904 43.8314 120.106 44.6905C119.307 45.5497 118.181 45.9785 116.726 45.9769C115.292 45.9769 114.182 45.5481 113.396 44.6905C112.61 43.833 112.218 42.6181 112.219 41.0458V24.759C112.219 23.2323 112.615 22.0378 113.415 21.1849C114.215 20.3321 115.316 19.8986 116.729 19.8986C118.141 19.8986 119.282 20.3273 120.092 21.1849C120.901 22.0425 121.306 23.2323 121.306 24.759L121.304 41.0458Z" fill="black"/>
<path d="M151.871 24.8298V51.0095H146.081V25.7675C146.081 23.7539 145.653 22.2485 144.796 21.2511C143.94 20.2537 142.632 19.7574 140.873 19.7621C139.147 19.7621 137.847 20.293 136.973 21.3548C136.099 22.4165 135.666 24.0398 135.672 26.2246V51.0095H129.885V14.963H135.679V19.3451C136.297 18.0486 137.198 16.9083 138.317 16.0091C139.756 14.8974 141.53 14.3106 143.347 14.3457C146.171 14.3457 148.298 15.23 149.729 16.9986C151.16 18.7671 151.874 21.3775 151.871 24.8298Z" fill="black"/>
<path d="M170.522 5.8005V19.2296C169.839 17.9881 168.92 16.8924 167.816 16.0042C166.494 14.9254 164.84 14.3377 163.135 14.3409C161.356 14.3409 159.836 14.7799 158.576 15.6579C157.316 16.5359 156.351 17.816 155.679 19.4982C155.006 21.1772 154.67 23.1861 154.672 25.5248V40.8386C154.672 43.0831 155.007 45.0221 155.679 46.6555C156.351 48.289 157.323 49.5275 158.597 50.3709C159.867 51.2144 161.381 51.6361 163.14 51.6361C164.891 51.6693 166.599 51.0856 167.964 49.9869C169.074 49.0673 169.952 47.8995 170.527 46.5778V51.0094H176.321V0.00244141L170.522 5.8005ZM169.936 43.6587C169.582 44.4947 168.982 45.203 168.216 45.6896C167.395 46.1829 166.45 46.4283 165.493 46.3964C163.901 46.3964 162.664 45.8985 161.784 44.9027C160.904 43.9069 160.464 42.5059 160.464 40.6996V25.7674C160.464 23.8245 160.904 22.3081 161.784 21.218C162.664 20.128 163.901 19.5838 165.493 19.5853C166.453 19.5562 167.4 19.8102 168.216 20.3157C168.989 20.8253 169.589 21.5583 169.936 22.4172C170.353 23.4721 170.553 24.6005 170.522 25.7344V40.4216C170.555 41.5298 170.356 42.6326 169.936 43.6587Z" fill="black"/>
<path d="M199.706 19.1918C198.883 17.6752 197.611 16.4506 196.065 15.6861C194.469 14.8788 192.55 14.4736 190.306 14.4705C186.978 14.4705 184.4 15.3673 182.57 17.161C180.741 18.9547 179.827 21.4834 179.828 24.7472L185.448 24.7826C185.427 23.0698 185.83 21.7504 186.665 20.8222C187.501 19.8939 188.654 19.4345 190.132 19.4345C191.819 19.4345 193.125 19.8971 194.053 20.8222C194.98 21.7473 195.442 23.0557 195.439 24.7472V29.4592H190.2C186.5 29.4592 183.726 30.4605 181.876 32.4631C180.026 34.4657 179.101 37.4923 179.101 41.543C179.101 44.9231 179.864 47.4518 181.391 49.1293C182.918 50.8067 185.204 51.6533 188.251 51.669C190.012 51.669 191.466 51.3792 192.624 50.7997C193.766 50.2367 194.687 49.3091 195.244 48.1633C195.314 48.0314 195.375 47.8924 195.434 47.751V51.146H200.96V24.759C200.96 22.5774 200.542 20.7217 199.706 19.1918ZM194.001 45.3079C193.041 46.3476 191.589 46.8675 189.647 46.8675C187.934 46.8675 186.656 46.4333 185.813 45.5647C184.971 44.6961 184.549 43.3611 184.547 41.5595C184.547 39.1062 185.018 37.2716 185.959 36.0559C186.9 34.8403 188.326 34.2332 190.235 34.2348H195.439V40.5959C195.439 42.6943 194.96 44.265 194.001 45.3079Z" fill="black"/>
<path d="M227.103 37.2976L224.938 47.3671L217.032 20.4217H209.539V41.6703C209.539 42.9692 209.823 43.9705 210.391 44.6742C210.959 45.3778 211.796 45.7312 212.902 45.7344H215.575V51.1979H212.177C209.263 51.1979 207.13 50.3929 205.778 48.783C204.425 47.1731 203.748 44.7951 203.747 41.6491V5.8005L209.539 0.00244141V14.9653H221.327L227.103 37.2976Z" fill="black"/>
<path d="M240 14.9651L228.659 59.4436C228.331 60.8022 227.686 62.0635 226.776 63.1237C225.846 64.138 224.668 64.8924 223.358 65.3124C221.723 65.8325 220.012 66.0793 218.296 66.0427H217.637V60.5533H218.296C220.099 60.5533 221.491 60.1544 222.474 59.3565C223.456 58.5586 224.141 57.3311 224.53 55.6741L225.785 50.3378L228.009 40.8903L234.104 14.9745L240 14.9651Z" fill="black"/>
<path d="M42.2923 3.18042L33.3702 12.2274L24.8553 3.18278L0 20.0516V31.2873L24.8482 48.3705L33.4126 39.274L42.3182 48.3705L66.3591 31.1223V20.2259L42.2923 3.18042ZM46.1191 25.7672L35.8626 14.8731L42.7112 7.93008L62.7159 22.1084V29.2493L42.7112 43.5925L35.8861 36.6141L46.1191 25.7672ZM41.1297 25.7672L33.3631 34.0131L25.2083 25.68L33.3114 17.4624L41.1297 25.7672ZM3.63144 29.3742V21.9835L24.3422 7.93243L30.8284 14.8213L20.1247 25.6753L30.8779 36.666L24.3469 43.602L3.63144 29.3742Z" fill="#00FF9D"/>
<path d="M138.739 62.0353C138.996 61.9087 139.28 61.8449 139.567 61.8492C139.909 61.8446 140.246 61.9334 140.541 62.106C140.834 62.2821 141.072 62.5367 141.229 62.8411C141.4 63.1785 141.487 63.5531 141.48 63.9319C141.486 64.3128 141.4 64.6896 141.229 65.0298C141.072 65.3399 140.834 65.6008 140.539 65.7837C140.247 65.9636 139.91 66.0575 139.567 66.0546C139.277 66.0591 138.99 65.9954 138.729 65.8685C138.502 65.759 138.304 65.5976 138.15 65.3973V65.9887H137.308V60.5181H138.15V62.5206C138.305 62.3141 138.506 62.1477 138.739 62.0353ZM140.45 63.2133C140.344 63.0171 140.186 62.854 139.993 62.7421C139.806 62.6387 139.597 62.5844 139.383 62.5843C139.166 62.5843 138.952 62.6434 138.766 62.7555C138.579 62.8675 138.427 63.0282 138.324 63.2204C138.204 63.4455 138.144 63.6979 138.15 63.9531C138.145 64.209 138.205 64.462 138.324 64.6882C138.431 64.884 138.589 65.047 138.781 65.1593C138.965 65.2665 139.174 65.323 139.387 65.323C139.6 65.323 139.809 65.2665 139.993 65.1593C140.186 65.0421 140.344 64.8743 140.45 64.674C140.569 64.4461 140.629 64.1916 140.624 63.9342C140.629 63.6829 140.569 63.4346 140.45 63.2133Z" fill="black"/>
<path d="M145.978 61.9153L143.481 67.9018H142.61L143.436 65.9204L141.836 61.9153H142.777L143.921 65.0181L145.098 61.9153H145.978Z" fill="black"/>
<path d="M151.72 60.8291V61.6631H149.572V62.9778H151.219V63.7976H149.572V65.9769H148.538V60.8291H151.72Z" fill="black"/>
<path d="M153.516 65.6988C153.116 65.478 152.784 65.1521 152.556 64.7564C152.323 64.3408 152.201 63.8723 152.201 63.3958C152.201 62.9193 152.323 62.4508 152.556 62.0352C152.786 61.6406 153.117 61.3151 153.516 61.0928C153.924 60.8701 154.381 60.7534 154.846 60.7534C155.31 60.7534 155.768 60.8701 156.176 61.0928C156.568 61.317 156.893 61.6424 157.117 62.0352C157.347 62.4518 157.468 62.9199 157.468 63.3958C157.468 63.8717 157.347 64.3398 157.117 64.7564C156.89 65.1519 156.56 65.4777 156.161 65.6988C155.754 65.9215 155.297 66.0382 154.833 66.0382C154.369 66.0382 153.912 65.9215 153.504 65.6988H153.516ZM155.663 64.9048C155.902 64.7614 156.095 64.552 156.218 64.3017C156.355 64.0185 156.423 63.7068 156.416 63.3923C156.422 63.0793 156.355 62.7691 156.218 62.4876C156.094 62.2392 155.901 62.0322 155.663 61.8915C155.413 61.7504 155.13 61.6788 154.843 61.6842C154.555 61.6794 154.271 61.7509 154.02 61.8915C153.78 62.0313 153.587 62.2386 153.464 62.4876C153.326 62.7685 153.257 63.0789 153.264 63.3923C153.257 63.7071 153.326 64.019 153.464 64.3017C153.587 64.5525 153.78 64.762 154.02 64.9048C154.271 65.0472 154.555 65.1196 154.843 65.1145C155.13 65.1203 155.414 65.0478 155.663 64.9048Z" fill="black"/>
<path d="M159.068 65.8544C158.796 65.7431 158.56 65.5589 158.385 65.3219C158.215 65.0827 158.125 64.7958 158.127 64.502H159.235C159.239 64.5972 159.261 64.6908 159.302 64.777C159.342 64.8633 159.399 64.9404 159.47 65.0039C159.626 65.1349 159.825 65.2015 160.028 65.19C160.233 65.2015 160.435 65.1397 160.598 65.0157C160.665 64.9606 160.718 64.891 160.754 64.8122C160.79 64.7334 160.807 64.6475 160.805 64.5609C160.807 64.4919 160.796 64.423 160.772 64.3583C160.748 64.2936 160.711 64.2344 160.664 64.184C160.565 64.0807 160.446 64.0003 160.313 63.9484C160.123 63.8755 159.93 63.8126 159.734 63.7599C159.455 63.682 159.182 63.5844 158.917 63.4678C158.705 63.369 158.52 63.2193 158.378 63.0319C158.215 62.8059 158.132 62.5311 158.143 62.2521C158.138 61.968 158.22 61.6893 158.378 61.4534C158.536 61.221 158.759 61.04 159.019 60.9327C159.317 60.8083 159.637 60.7465 159.96 60.7513C160.424 60.7305 160.881 60.8676 161.257 61.1401C161.421 61.2693 161.556 61.4331 161.651 61.6199C161.745 61.8067 161.798 62.0121 161.805 62.2215H160.668C160.663 62.1357 160.64 62.052 160.599 61.9764C160.558 61.9007 160.502 61.8348 160.433 61.7832C160.273 61.6613 160.076 61.5996 159.875 61.6089C159.7 61.5997 159.528 61.655 159.39 61.7644C159.329 61.8211 159.28 61.891 159.249 61.9689C159.218 62.0467 159.204 62.1306 159.209 62.2144C159.208 62.278 159.219 62.3412 159.242 62.4004C159.266 62.4595 159.301 62.5132 159.346 62.5584C159.444 62.6541 159.56 62.7294 159.687 62.7798C159.822 62.8364 160.013 62.9023 160.259 62.9777C160.539 63.055 160.813 63.1535 161.078 63.2722C161.293 63.3742 161.48 63.526 161.624 63.7152C161.788 63.9403 161.871 64.2143 161.859 64.4926C161.861 64.7637 161.787 65.0297 161.645 65.2607C161.494 65.5048 161.277 65.7009 161.019 65.8261C160.713 65.9723 160.377 66.0441 160.038 66.0358C159.706 66.0415 159.376 65.9798 159.068 65.8544Z" fill="black"/>
<path d="M168.075 60.8572V61.5451H166.71V65.9932H165.867V61.5381H164.493V60.8572H168.075Z" fill="black"/>
<path d="M172.624 64.2642H169.515C169.52 64.4125 169.555 64.5583 169.618 64.693C169.68 64.8277 169.768 64.9486 169.878 65.0487C170.095 65.2459 170.38 65.3515 170.673 65.3432C170.872 65.3573 171.07 65.3105 171.242 65.2091C171.413 65.1077 171.55 64.9564 171.633 64.7754H172.542C172.422 65.1456 172.188 65.4681 171.873 65.6966C171.523 65.9437 171.101 66.0694 170.673 66.0547C170.308 66.0598 169.947 65.9688 169.628 65.7908C169.323 65.6172 169.073 65.3618 168.906 65.0534C168.726 64.7133 168.636 64.333 168.644 63.9485C168.636 63.564 168.724 63.1835 168.899 62.8412C169.059 62.5334 169.304 62.2783 169.605 62.1061C169.93 61.9304 170.294 61.842 170.664 61.8493C171.022 61.8424 171.377 61.9284 171.692 62.099C171.99 62.2619 172.236 62.5073 172.398 62.8058C172.572 63.1266 172.658 63.4872 172.65 63.8519C172.652 63.9898 172.643 64.1276 172.624 64.2642ZM171.777 63.5857C171.78 63.4444 171.752 63.3041 171.695 63.175C171.637 63.0458 171.552 62.931 171.445 62.8388C171.221 62.648 170.934 62.5479 170.64 62.5584C170.366 62.5522 170.099 62.6508 169.894 62.8341C169.683 63.0308 169.552 63.2983 169.525 63.5857H171.777Z" fill="black"/>
<path d="M173.455 62.8412C173.616 62.5345 173.861 62.2798 174.161 62.1061C174.512 61.923 174.906 61.8351 175.302 61.8512C175.698 61.8674 176.082 61.9869 176.418 62.198C176.747 62.4446 176.978 62.8003 177.07 63.2016H176.161C176.097 63.0109 175.973 62.8457 175.808 62.7305C175.626 62.6116 175.412 62.5523 175.194 62.5608C175.038 62.5541 174.883 62.5835 174.741 62.6469C174.598 62.7102 174.472 62.8058 174.373 62.926C174.151 63.2199 174.042 63.5833 174.064 63.9508C174.043 64.3189 174.152 64.6828 174.373 64.978C174.472 65.0986 174.598 65.1945 174.74 65.2582C174.883 65.322 175.038 65.3519 175.194 65.3456C175.404 65.3622 175.613 65.3082 175.788 65.192C175.963 65.0759 176.095 64.9044 176.161 64.7048H177.07C176.965 65.0983 176.732 65.4452 176.406 65.6896C176.054 65.9431 175.628 66.0724 175.194 66.0571C174.832 66.063 174.476 65.9719 174.161 65.7932C173.861 65.6187 173.616 65.3632 173.455 65.0558C173.286 64.7115 173.198 64.3331 173.198 63.9497C173.198 63.5662 173.286 63.1878 173.455 62.8435V62.8412Z" fill="black"/>
<path d="M180.845 62.0471C181.091 62.1836 181.291 62.3892 181.422 62.6384C181.567 62.9306 181.639 63.2543 181.631 63.5808V65.9816H180.795V63.7057C180.816 63.4013 180.719 63.1006 180.522 62.867C180.426 62.7681 180.31 62.6908 180.182 62.6405C180.054 62.5901 179.916 62.5677 179.779 62.5748C179.64 62.5679 179.502 62.5903 179.372 62.6407C179.243 62.691 179.126 62.7681 179.028 62.867C178.831 63.1003 178.732 63.401 178.753 63.7057V65.9816H177.91V60.5181H178.753V62.3887C178.897 62.2127 179.083 62.0752 179.294 61.9882C179.522 61.893 179.767 61.8456 180.014 61.8492C180.303 61.8442 180.589 61.9123 180.845 62.0471Z" fill="black"/>
<path d="M185.613 62.0471C185.866 62.18 186.074 62.3861 186.208 62.6385C186.358 62.9295 186.432 63.2537 186.423 63.5809V65.9816H185.587V63.7057C185.608 63.4013 185.51 63.1006 185.314 62.867C185.218 62.7681 185.102 62.6909 184.974 62.6405C184.846 62.5901 184.708 62.5677 184.57 62.5749C184.432 62.5679 184.293 62.5904 184.164 62.6407C184.035 62.691 183.917 62.7682 183.82 62.867C183.623 63.1003 183.524 63.401 183.544 63.7057V65.9816H182.702V61.9152H183.544V62.3864C183.686 62.2157 183.867 62.0816 184.072 61.9953C184.287 61.9015 184.519 61.8541 184.754 61.8563C185.052 61.8489 185.347 61.9144 185.613 62.0471Z" fill="black"/>
<path d="M188.216 65.7909C187.909 65.6182 187.656 65.3628 187.486 65.0534C187.305 64.7141 187.213 64.3335 187.221 63.9485C187.214 63.5634 187.308 63.1832 187.494 62.8459C187.67 62.5318 187.933 62.2751 188.251 62.1061C188.579 61.9361 188.942 61.8474 189.31 61.8474C189.679 61.8474 190.042 61.9361 190.37 62.1061C190.683 62.2769 190.942 62.5335 191.116 62.8459C191.301 63.1832 191.396 63.5634 191.389 63.9485C191.395 64.3337 191.299 64.7137 191.109 65.0487C190.927 65.3625 190.663 65.6195 190.344 65.7909C190.016 65.9673 189.649 66.0581 189.277 66.0547C188.907 66.0622 188.54 65.9711 188.216 65.7909ZM189.863 65.1665C190.061 65.0565 190.224 64.8933 190.334 64.6953C190.458 64.4637 190.519 64.2038 190.511 63.9414C190.519 63.6805 190.461 63.4219 190.341 63.1899C190.24 62.992 190.083 62.8283 189.889 62.7187C189.705 62.6153 189.496 62.5618 189.285 62.5632C189.074 62.5615 188.867 62.6151 188.684 62.7187C188.494 62.8282 188.341 62.9923 188.244 63.1899C188.13 63.4233 188.074 63.6814 188.082 63.9414C188.057 64.311 188.178 64.6756 188.418 64.9568C188.526 65.0735 188.656 65.1657 188.802 65.2275C188.948 65.2893 189.105 65.3191 189.263 65.3149C189.474 65.3171 189.682 65.266 189.868 65.1665H189.863Z" fill="black"/>
<path d="M193.045 60.5181V65.9863H192.203V60.5181H193.045Z" fill="black"/>
<path d="M194.876 65.7908C194.569 65.6181 194.316 65.3626 194.147 65.0533C193.964 64.7144 193.872 64.3336 193.881 63.9484C193.873 63.5631 193.967 63.1826 194.154 62.8458C194.328 62.5343 194.585 62.278 194.898 62.106C195.225 61.9364 195.588 61.8479 195.957 61.8479C196.325 61.8479 196.688 61.9364 197.016 62.106C197.329 62.2779 197.587 62.5342 197.762 62.8458C197.948 63.1831 198.042 63.5633 198.035 63.9484C198.042 64.3336 197.945 64.7136 197.755 65.0486C197.574 65.3624 197.309 65.6194 196.99 65.7908C196.662 65.9674 196.294 66.0582 195.921 66.0546C195.556 66.0596 195.196 65.9686 194.876 65.7908ZM196.524 65.1664C196.723 65.058 196.886 64.8944 196.995 64.6952C197.12 64.4642 197.182 64.2041 197.173 63.9413C197.182 63.6801 197.123 63.4211 197.002 63.1898C196.901 62.992 196.745 62.8282 196.552 62.7186C196.367 62.6165 196.16 62.5629 195.948 62.5629C195.737 62.5629 195.53 62.6165 195.345 62.7186C195.155 62.8294 195.003 62.9932 194.905 63.1898C194.792 63.4238 194.737 63.6816 194.745 63.9413C194.721 64.3103 194.841 64.6743 195.079 64.9567C195.186 65.0731 195.317 65.1652 195.463 65.227C195.608 65.2887 195.766 65.3187 195.924 65.3148C196.134 65.3169 196.341 65.2658 196.526 65.1664H196.524Z" fill="black"/>
<path d="M201.342 62.0353C201.565 62.1469 201.761 62.308 201.913 62.5065V61.9151H202.763V66.0546C202.769 66.4028 202.689 66.7471 202.528 67.0559C202.372 67.3473 202.135 67.5872 201.845 67.7462C201.517 67.9209 201.15 68.0078 200.779 67.9983C200.291 68.0171 199.81 67.881 199.405 67.6095C199.229 67.4915 199.083 67.3356 198.976 67.1534C198.868 66.9711 198.804 66.7671 198.786 66.5564H199.619C199.686 66.7732 199.832 66.9566 200.028 67.07C200.255 67.2048 200.515 67.2726 200.779 67.2656C200.93 67.272 201.081 67.2477 201.223 67.1943C201.364 67.1408 201.493 67.0593 201.603 66.9546C201.713 66.8334 201.797 66.6912 201.851 66.5366C201.905 66.3819 201.927 66.218 201.916 66.0546V65.3737C201.761 65.5758 201.563 65.7408 201.337 65.8567C201.081 65.9912 200.795 66.0593 200.506 66.0546C200.163 66.0574 199.826 65.9635 199.534 65.7837C199.238 65.6006 198.998 65.3399 198.84 65.0298C198.666 64.6902 198.579 64.3132 198.586 63.9319C198.578 63.5543 198.666 63.1809 198.84 62.8458C198.998 62.5418 199.238 62.2877 199.532 62.1118C199.826 61.9359 200.163 61.845 200.506 61.8492C200.795 61.8439 201.082 61.9077 201.342 62.0353ZM201.739 63.2133C201.634 63.0173 201.477 62.8542 201.285 62.7421C201.102 62.6342 200.893 62.578 200.68 62.5795C200.468 62.579 200.26 62.6333 200.075 62.7374C199.883 62.8494 199.726 63.0125 199.621 63.2086C199.501 63.432 199.441 63.6829 199.447 63.9366C199.442 64.1939 199.502 64.4484 199.621 64.6764C199.726 64.8766 199.884 65.0444 200.078 65.1617C200.261 65.2689 200.469 65.3255 200.681 65.3255C200.894 65.3255 201.102 65.2689 201.285 65.1617C201.477 65.0493 201.634 64.8863 201.739 64.6905C201.859 64.4643 201.919 64.2113 201.913 63.9554C201.921 63.6971 201.861 63.4412 201.739 63.2133Z" fill="black"/>
<path d="M203.914 61.2202C203.863 61.17 203.824 61.1102 203.797 61.0441C203.77 60.9781 203.757 60.9074 203.759 60.8361C203.754 60.7628 203.764 60.6892 203.789 60.6199C203.813 60.5507 203.852 60.4872 203.902 60.4336C203.952 60.3799 204.013 60.3371 204.08 60.3078C204.148 60.2785 204.221 60.2634 204.294 60.2634C204.367 60.2634 204.44 60.2785 204.508 60.3078C204.575 60.3371 204.636 60.3799 204.686 60.4336C204.736 60.4872 204.775 60.5507 204.799 60.6199C204.824 60.6892 204.834 60.7628 204.829 60.8361C204.831 60.9074 204.818 60.9781 204.791 61.0441C204.764 61.1102 204.725 61.17 204.674 61.2202C204.625 61.2706 204.567 61.3104 204.502 61.3371C204.437 61.3639 204.368 61.377 204.298 61.3757C204.226 61.3774 204.156 61.3645 204.09 61.3378C204.024 61.311 203.964 61.271 203.914 61.2202ZM204.712 61.927V65.9981H203.869V61.9152L204.712 61.927Z" fill="black"/>
<path d="M209.518 64.264H206.409C206.42 64.5611 206.548 64.8417 206.766 65.044C206.983 65.2463 207.272 65.3539 207.569 65.3431C207.767 65.3565 207.965 65.3095 208.137 65.2081C208.308 65.1068 208.445 64.9559 208.529 64.7753H209.433C209.312 65.145 209.078 65.4673 208.764 65.6965C208.414 65.9435 207.993 66.0693 207.564 66.0546C207.199 66.0597 206.838 65.9687 206.519 65.7907C206.214 65.6181 205.963 65.3624 205.797 65.0533C205.615 64.7138 205.525 64.3332 205.533 63.9483C205.525 63.5639 205.612 63.1833 205.787 62.841C205.951 62.5318 206.2 62.2766 206.505 62.106C206.83 61.9294 207.195 61.8408 207.564 61.8492C207.922 61.8425 208.275 61.9285 208.59 62.0989C208.888 62.2621 209.133 62.5074 209.296 62.8057C209.469 63.1269 209.555 63.4872 209.548 63.8518C209.548 63.9898 209.538 64.1276 209.518 64.264ZM208.668 63.5855C208.671 63.4442 208.643 63.304 208.586 63.1748C208.528 63.0457 208.443 62.9309 208.336 62.8387C208.112 62.6478 207.825 62.5478 207.531 62.5583C207.257 62.5526 206.99 62.6511 206.785 62.834C206.574 63.0307 206.443 63.2982 206.416 63.5855H208.668Z" fill="black"/>
<path d="M210.991 65.8803C210.753 65.7778 210.545 65.6155 210.388 65.4091C210.243 65.2156 210.161 64.982 210.153 64.74H211.024C211.03 64.8249 211.054 64.9076 211.094 64.9824C211.135 65.0572 211.191 65.1224 211.259 65.1735C211.423 65.2927 211.622 65.3533 211.824 65.3455C212.017 65.3577 212.21 65.31 212.375 65.2088C212.434 65.1719 212.484 65.1202 212.518 65.0588C212.552 64.9973 212.57 64.9281 212.57 64.8578C212.571 64.7859 212.551 64.7153 212.512 64.6549C212.473 64.5945 212.417 64.547 212.351 64.5185C212.129 64.4199 211.898 64.341 211.662 64.2829C211.408 64.2202 211.159 64.1415 210.916 64.0473C210.723 63.9682 210.553 63.8437 210.419 63.6845C210.271 63.5038 210.196 63.2746 210.207 63.0414C210.206 62.8278 210.273 62.6195 210.4 62.4476C210.54 62.2571 210.73 62.1094 210.948 62.0212C211.21 61.9153 211.49 61.8632 211.772 61.8681C212.174 61.848 212.57 61.9716 212.89 62.2168C213.031 62.3337 213.145 62.4802 213.223 62.6458C213.302 62.8115 213.343 62.9923 213.344 63.1756H212.516C212.511 63.0917 212.489 63.0096 212.451 62.9346C212.413 62.8596 212.36 62.7932 212.295 62.7398C212.139 62.6245 211.949 62.567 211.756 62.5772C211.577 62.5652 211.398 62.6088 211.245 62.7021C211.19 62.7381 211.145 62.7875 211.114 62.8455C211.083 62.9036 211.068 62.9685 211.068 63.0343C211.068 63.0856 211.078 63.1364 211.098 63.1836C211.118 63.2307 211.148 63.2729 211.186 63.3076C211.269 63.385 211.367 63.4443 211.473 63.4819C211.589 63.5243 211.756 63.5762 211.977 63.6398C212.224 63.7027 212.467 63.7814 212.704 63.8754C212.892 63.9572 213.06 64.0804 213.194 64.2358C213.338 64.4119 213.415 64.6346 213.408 64.8625C213.411 65.0847 213.344 65.3022 213.217 65.4845C213.079 65.6746 212.891 65.8229 212.674 65.9133C212.413 66.0223 212.132 66.0753 211.85 66.0688C211.553 66.0688 211.26 66.0045 210.991 65.8803Z" fill="black"/>
</svg>
